<?xml version="1.0" encoding="UTF-8" standalone="no"?>
<!DOCTYPE svg PUBLIC "-//W3C//DTD SVG 1.1//EN"
 "http://www.w3.org/Graphics/SVG/1.1/DTD/svg11.dtd">
<!-- Generated by graphviz version 14.1.2 (0)
 -->
<!-- Title: GEDPaths Pages: 1 -->
<svg width="634pt" height="456pt"
 viewBox="0.00 0.00 634.00 456.00" xmlns="http://www.w3.org/2000/svg" xmlns:xlink="http://www.w3.org/1999/xlink">
<g id="graph0" class="graph" transform="scale(1 1) rotate(0) translate(4 451.51)">
<title>GEDPaths</title>
<polygon fill="white" stroke="none" points="-4,4 -4,-451.51 629.79,-451.51 629.79,4 -4,4"/>
<text xml:space="preserve" text-anchor="start" x="241.27" y="-431.21" font-family="Helvetica,sans-Serif" font-weight="bold" font-size="14.00">GEDPaths pipeline</text>
<text xml:space="preserve" text-anchor="start" x="213.15" y="-417.21" font-family="Helvetica,sans-Serif" font-size="14.00">(experiment.sh, per dataset)</text>
<g id="clust1" class="cluster">
<title>cluster_legend</title>
<path fill="white" stroke="#cccccc" d="M297.46,-246.23C297.46,-246.23 465.46,-246.23 465.46,-246.23 471.46,-246.23 477.46,-252.23 477.46,-258.23 477.46,-258.23 477.46,-391.51 477.46,-391.51 477.46,-397.51 471.46,-403.51 465.46,-403.51 465.46,-403.51 297.46,-403.51 297.46,-403.51 291.46,-403.51 285.46,-397.51 285.46,-391.51 285.46,-391.51 285.46,-258.23 285.46,-258.23 285.46,-252.23 291.46,-246.23 297.46,-246.23"/>
<text xml:space="preserve" text-anchor="middle" x="381.46" y="-390.01" font-family="Helvetica,sans-Serif" font-size="10.00">Legend</text>
</g>
<!-- s1 -->
<g id="node1" class="node">
<title>s1</title>
<path fill="#dbeafe" stroke="#3b82f6" d="M246.17,-375.4C246.17,-375.4 116.75,-375.4 116.75,-375.4 110.75,-375.4 104.75,-369.4 104.75,-363.4 104.75,-363.4 104.75,-350.12 104.75,-350.12 104.75,-344.12 110.75,-338.12 116.75,-338.12 116.75,-338.12 246.17,-338.12 246.17,-338.12 252.17,-338.12 258.17,-344.12 258.17,-350.12 258.17,-350.12 258.17,-363.4 258.17,-363.4 258.17,-369.4 252.17,-375.4 246.17,-375.4"/>
<text xml:space="preserve" text-anchor="start" x="117.71" y="-357.31" font-family="Helvetica,sans-Serif" font-weight="bold" font-size="11.00">1. Download dataset</text>
<text xml:space="preserve" text-anchor="start" x="121.83" y="-348.21" font-family="Helvetica,sans-Serif" font-size="9.00">python_src/data_loader.py</text>
</g>
<!-- s2 -->
<g id="node5" class="node">
<title>s2</title>
<path fill="#dcfce7" stroke="#22c55e" d="M263.79,-290.87C263.79,-290.87 99.12,-290.87 99.12,-290.87 93.12,-290.87 87.12,-284.87 87.12,-278.87 87.12,-278.87 87.12,-265.59 87.12,-265.59 87.12,-259.59 93.12,-253.59 99.12,-253.59 99.12,-253.59 263.79,-253.59 263.79,-253.59 269.79,-253.59 275.79,-259.59 275.79,-265.59 275.79,-265.59 275.79,-278.87 275.79,-278.87 275.79,-284.87 269.79,-290.87 263.79,-290.87"/>
<text xml:space="preserve" text-anchor="start" x="100.08" y="-272.78" font-family="Helvetica,sans-Serif" font-weight="bold" font-size="11.00">2. Compute GED mappings</text>
<text xml:space="preserve" text-anchor="start" x="145.08" y="-263.68" font-family="Helvetica,sans-Serif" font-size="9.00">CreateMappings</text>
</g>
<!-- s1&#45;&gt;s2 -->
<g id="edge1" class="edge">
<title>s1&#45;&gt;s2</title>
<path fill="none" stroke="#555555" d="M181.46,-337.85C181.46,-327.47 181.46,-314.15 181.46,-302.3"/>
<polygon fill="#555555" stroke="#555555" points="184.96,-302.62 181.46,-292.62 177.96,-302.62 184.96,-302.62"/>
<text xml:space="preserve" text-anchor="middle" x="212.58" y="-311.57" font-family="Helvetica,sans-Serif" font-size="9.00"> Data/Graphs/</text>
</g>
<!-- s6 -->
<g id="node2" class="node">
<title>s6</title>
<path fill="#dbeafe" stroke="#3b82f6" d="M214.92,-121.81C214.92,-121.81 12,-121.81 12,-121.81 6,-121.81 0,-115.81 0,-109.81 0,-109.81 0,-96.53 0,-96.53 0,-90.53 6,-84.53 12,-84.53 12,-84.53 214.92,-84.53 214.92,-84.53 220.92,-84.53 226.92,-90.53 226.92,-96.53 226.92,-96.53 226.92,-109.81 226.92,-109.81 226.92,-115.81 220.92,-121.81 214.92,-121.81"/>
<text xml:space="preserve" text-anchor="start" x="12.96" y="-103.72" font-family="Helvetica,sans-Serif" font-weight="bold" font-size="11.00">6. Convert to PyTorch Geometric</text>
<text xml:space="preserve" text-anchor="start" x="61.71" y="-94.62" font-family="Helvetica,sans-Serif" font-size="9.00">converter/bgf_to_pt.py</text>
</g>
<!-- s7 -->
<g id="node3" class="node">
<title>s7</title>
<path fill="#dbeafe" stroke="#3b82f6" d="M613.8,-37.28C613.8,-37.28 449.13,-37.28 449.13,-37.28 443.13,-37.28 437.13,-31.28 437.13,-25.28 437.13,-25.28 437.13,-12 437.13,-12 437.13,-6 443.13,0 449.13,0 449.13,0 613.8,0 613.8,0 619.8,0 625.8,-6 625.8,-12 625.8,-12 625.8,-25.28 625.8,-25.28 625.8,-31.28 619.8,-37.28 613.8,-37.28"/>
<text xml:space="preserve" text-anchor="start" x="480.46" y="-19.19" font-family="Helvetica,sans-Serif" font-weight="bold" font-size="11.00">7. Plot statistics</text>
<text xml:space="preserve" text-anchor="start" x="450.09" y="-10.09" font-family="Helvetica,sans-Serif" font-size="9.00">visualization/plot_edit_path_stats.py</text>
</g>
<!-- s8 -->
<g id="node4" class="node">
<title>s8</title>
<path fill="#dbeafe" stroke="#3b82f6" d="M436.29,-121.81C436.29,-121.81 256.62,-121.81 256.62,-121.81 250.62,-121.81 244.62,-115.81 244.62,-109.81 244.62,-109.81 244.62,-96.53 244.62,-96.53 244.62,-90.53 250.62,-84.53 256.62,-84.53 256.62,-84.53 436.29,-84.53 436.29,-84.53 442.29,-84.53 448.29,-90.53 448.29,-96.53 448.29,-96.53 448.29,-109.81 448.29,-109.81 448.29,-115.81 442.29,-121.81 436.29,-121.81"/>
<text xml:space="preserve" text-anchor="start" x="257.58" y="-103.72" font-family="Helvetica,sans-Serif" font-weight="bold" font-size="11.00">8. Weisfeiler&#45;Leman analysis</text>
<text xml:space="preserve" text-anchor="start" x="287.96" y="-94.62" font-family="Helvetica,sans-Serif" font-size="9.00">python_src/wl_analysis.py</text>
</g>
<!-- s3 -->
<g id="node6" class="node">
<title>s3</title>
<path fill="#dcfce7" stroke="#22c55e" d="M198.29,-206.34C198.29,-206.34 66.62,-206.34 66.62,-206.34 60.62,-206.34 54.62,-200.34 54.62,-194.34 54.62,-194.34 54.62,-181.06 54.62,-181.06 54.62,-175.06 60.62,-169.06 66.62,-169.06 66.62,-169.06 198.29,-169.06 198.29,-169.06 204.29,-169.06 210.29,-175.06 210.29,-181.06 210.29,-181.06 210.29,-194.34 210.29,-194.34 210.29,-200.34 204.29,-206.34 198.29,-206.34"/>
<text xml:space="preserve" text-anchor="start" x="67.58" y="-188.25" font-family="Helvetica,sans-Serif" font-weight="bold" font-size="11.00">3. Validate mappings</text>
<text xml:space="preserve" text-anchor="start" x="93.46" y="-179.15" font-family="Helvetica,sans-Serif" font-size="9.00">AnalyzeMappings</text>
</g>
<!-- s2&#45;&gt;s3 -->
<g id="edge2" class="edge">
<title>s2&#45;&gt;s3</title>
<path fill="none" stroke="#555555" d="M170.83,-253.32C164.41,-242.51 156.09,-228.5 148.84,-216.29"/>
<polygon fill="#555555" stroke="#555555" points="151.96,-214.69 143.84,-207.87 145.94,-218.26 151.96,-214.69"/>
<text xml:space="preserve" text-anchor="middle" x="197.77" y="-227.04" font-family="Helvetica,sans-Serif" font-size="9.00"> mappings (.bin)</text>
</g>
<!-- s4 -->
<g id="node7" class="node">
<title>s4</title>
<path fill="#dcfce7" stroke="#22c55e" d="M452.42,-206.34C452.42,-206.34 240.5,-206.34 240.5,-206.34 234.5,-206.34 228.5,-200.34 228.5,-194.34 228.5,-194.34 228.5,-181.06 228.5,-181.06 228.5,-175.06 234.5,-169.06 240.5,-169.06 240.5,-169.06 452.42,-169.06 452.42,-169.06 458.42,-169.06 464.42,-175.06 464.42,-181.06 464.42,-181.06 464.42,-194.34 464.42,-194.34 464.42,-200.34 458.42,-206.34 452.42,-206.34"/>
<text xml:space="preserve" text-anchor="start" x="241.46" y="-188.25" font-family="Helvetica,sans-Serif" font-weight="bold" font-size="11.00">4. Build edit paths (×4 strategies)</text>
<text xml:space="preserve" text-anchor="start" x="319.46" y="-179.15" font-family="Helvetica,sans-Serif" font-size="9.00">CreatePaths</text>
</g>
<!-- s2&#45;&gt;s4 -->
<g id="edge3" class="edge">
<title>s2&#45;&gt;s4</title>
<path fill="none" stroke="#555555" d="M217.67,-253.12C241.96,-240.97 274.16,-224.86 300.28,-211.8"/>
<polygon fill="#555555" stroke="#555555" points="301.6,-215.05 308.98,-207.45 298.47,-208.79 301.6,-215.05"/>
<text xml:space="preserve" text-anchor="middle" x="311.71" y="-227.04" font-family="Helvetica,sans-Serif" font-size="9.00"> mappings (.bin)</text>
</g>
<!-- s4&#45;&gt;s6 -->
<g id="edge5" class="edge">
<title>s4&#45;&gt;s6</title>
<path fill="none" stroke="#555555" d="M295.33,-168.59C259.97,-156.06 212.73,-139.33 175.26,-126.06"/>
<polygon fill="#555555" stroke="#555555" points="176.5,-122.78 165.9,-122.74 174.16,-129.38 176.5,-122.78"/>
<text xml:space="preserve" text-anchor="middle" x="272.41" y="-142.51" font-family="Helvetica,sans-Serif" font-size="9.00"> paths (.bgf)</text>
</g>
<!-- s4&#45;&gt;s8 -->
<g id="edge6" class="edge">
<title>s4&#45;&gt;s8</title>
<path fill="none" stroke="#555555" d="M346.46,-168.79C346.46,-158.41 346.46,-145.09 346.46,-133.24"/>
<polygon fill="#555555" stroke="#555555" points="349.96,-133.56 346.46,-123.56 342.96,-133.56 349.96,-133.56"/>
<text xml:space="preserve" text-anchor="middle" x="374.96" y="-142.51" font-family="Helvetica,sans-Serif" font-size="9.00"> paths (.bgf)</text>
</g>
<!-- s5 -->
<g id="node8" class="node">
<title>s5</title>
<path fill="#dcfce7" stroke="#22c55e" d="M584.92,-121.81C584.92,-121.81 478,-121.81 478,-121.81 472,-121.81 466,-115.81 466,-109.81 466,-109.81 466,-96.53 466,-96.53 466,-90.53 472,-84.53 478,-84.53 478,-84.53 584.92,-84.53 584.92,-84.53 590.92,-84.53 596.92,-90.53 596.92,-96.53 596.92,-96.53 596.92,-109.81 596.92,-109.81 596.92,-115.81 590.92,-121.81 584.92,-121.81"/>
<text xml:space="preserve" text-anchor="start" x="478.96" y="-103.72" font-family="Helvetica,sans-Serif" font-weight="bold" font-size="11.00">5. Path statistics</text>
<text xml:space="preserve" text-anchor="start" x="501.84" y="-94.62" font-family="Helvetica,sans-Serif" font-size="9.00">AnalyzePaths</text>
</g>
<!-- s4&#45;&gt;s5 -->
<g id="edge4" class="edge">
<title>s4&#45;&gt;s5</title>
<path fill="none" stroke="#555555" d="M387.06,-168.59C414.53,-156.33 451.03,-140.05 480.46,-126.92"/>
<polygon fill="#555555" stroke="#555555" points="481.87,-130.13 489.57,-122.86 479.02,-123.73 481.87,-130.13"/>
<text xml:space="preserve" text-anchor="middle" x="478.54" y="-142.51" font-family="Helvetica,sans-Serif" font-size="9.00"> paths (.bgf)</text>
</g>
<!-- s5&#45;&gt;s7 -->
<g id="edge7" class="edge">
<title>s5&#45;&gt;s7</title>
<path fill="none" stroke="#555555" d="M531.46,-84.26C531.46,-73.88 531.46,-60.56 531.46,-48.71"/>
<polygon fill="#555555" stroke="#555555" points="534.96,-49.03 531.46,-39.03 527.96,-49.03 534.96,-49.03"/>
<text xml:space="preserve" text-anchor="middle" x="558.09" y="-57.98" font-family="Helvetica,sans-Serif" font-size="9.00"> stats (.csv)</text>
</g>
<!-- legend_cpp -->
<g id="node9" class="node">
<title>legend_cpp</title>
<path fill="#dcfce7" stroke="#22c55e" d="M433.79,-374.76C433.79,-374.76 329.12,-374.76 329.12,-374.76 323.12,-374.76 317.12,-368.76 317.12,-362.76 317.12,-362.76 317.12,-350.76 317.12,-350.76 317.12,-344.76 323.12,-338.76 329.12,-338.76 329.12,-338.76 433.79,-338.76 433.79,-338.76 439.79,-338.76 445.79,-344.76 445.79,-350.76 445.79,-350.76 445.79,-362.76 445.79,-362.76 445.79,-368.76 439.79,-374.76 433.79,-374.76"/>
<text xml:space="preserve" text-anchor="middle" x="381.46" y="-353.06" font-family="Helvetica,sans-Serif" font-size="11.00">C++ stage (build/)</text>
</g>
<!-- legend_py -->
<g id="node10" class="node">
<title>legend_py</title>
<path fill="#dbeafe" stroke="#3b82f6" d="M457.04,-290.23C457.04,-290.23 305.88,-290.23 305.88,-290.23 299.88,-290.23 293.88,-284.23 293.88,-278.23 293.88,-278.23 293.88,-266.23 293.88,-266.23 293.88,-260.23 299.88,-254.23 305.88,-254.23 305.88,-254.23 457.04,-254.23 457.04,-254.23 463.04,-254.23 469.04,-260.23 469.04,-266.23 469.04,-266.23 469.04,-278.23 469.04,-278.23 469.04,-284.23 463.04,-290.23 457.04,-290.23"/>
<text xml:space="preserve" text-anchor="middle" x="381.46" y="-268.53" font-family="Helvetica,sans-Serif" font-size="11.00">Python stage (python_src/)</text>
</g>
<!-- legend_cpp&#45;&gt;legend_py -->
</g>
</svg>
